# Blender v2.62 (sub 0) OBJ File: 'cube_mtl_test.blend'
# www.blender.org
mtllib cube_mtl_test_nrm_st.mtl
o Cube
v 1.000000 -1.000000 -1.000000
v 1.000000 -1.000000 1.000000
v -1.000000 -1.000000 1.000000
v -1.000000 -1.000000 -1.000000
v 1.000000 1.000000 -0.999999
v 0.999999 1.000000 1.000001
v -1.000000 1.000000 1.000000
v -1.000000 1.000000 -1.000000
vt 0.665647 0.162500
vt 0.666667 0.494814
vt 0.334353 0.495833
vt 0.333333 0.163519
vt 0.334353 0.829167
vt 0.333333 0.496853
vt 0.665647 0.495833
vt 0.666667 0.828147
vt 0.000000 0.496853
vt 0.332314 0.495833
vt 0.333333 0.828147
vt 0.001020 0.829167
vt 1.000000 0.163519
vt 0.998981 0.495833
vt 0.667686 0.162500
vt 1.000000 0.828147
vt 0.667686 0.829167
vt 0.666667 0.496853
vt 0.333333 0.494814
vt 0.001020 0.495833
vt 0.000000 0.163520
vt 0.332314 0.162500
vn 0.000000 -1.000000 0.000000
vn -0.000000 -0.000000 1.000000
vn 0.000000 0.000000 -1.000000
vn 0.000000 1.000000 0.000000
vn 1.000000 0.000000 0.000000
vn -1.000000 -0.000000 -0.000000
usemtl mtl.one
s off
f 1/1/1 2/2/1 3/3/1 4/4/1
f 2/5/2 6/6/2 7/7/2 3/8/2
f 5/9/3 1/10/3 4/11/3 8/12/3
usemtl mtl.three
f 5/13/4 8/14/4 7/2/4 6/15/4
usemtl mtl.two
f 1/14/5 5/16/5 6/17/5 2/18/5
f 3/19/6 7/20/6 8/21/6 4/22/6
