# Blender v2.62 (sub 0) OBJ File: 'cube_mtl_test.blend'
# www.blender.org
mtllib cube_mtl_test_nrm.mtl
o Cube
v 1.000000 -1.000000 -1.000000
v 1.000000 -1.000000 1.000000
v -1.000000 -1.000000 1.000000
v -1.000000 -1.000000 -1.000000
v 1.000000 1.000000 -0.999999
v 0.999999 1.000000 1.000001
v -1.000000 1.000000 1.000000
v -1.000000 1.000000 -1.000000
vn 0.000000 -1.000000 0.000000
vn -0.000000 -0.000000 1.000000
vn 0.000000 0.000000 -1.000000
vn 0.000000 1.000000 0.000000
vn 1.000000 0.000000 0.000000
vn -1.000000 -0.000000 -0.000000
usemtl mtl.one
s off
f 1//1 2//1 3//1 4//1
f 2//2 6//2 7//2 3//2
f 5//3 1//3 4//3 8//3
usemtl mtl.three
f 5//4 8//4 7//4 6//4
usemtl mtl.two
f 1//5 5//5 6//5 2//5
f 3//6 7//6 8//6 4//6
